# xmcd CD database file
#
# Track frame offsets:
#	150
#	15592
#	22191
#	32069
#	51625
#	64698
#	73187
#	89160
#	100557
#	118990
#	135935
#	148767
#	168528
#	177920
#	190965
#	202034
#	215525
#	221252
#	241672
#	252454
#
# Disc length: 3474 seconds
#
# Revision: 2
# Processed by: cddbd v1.5.1PL2 Copyright (c) Steve Scherf et al.
# Submitted via: CDex 1.51
#
DISCID=340d9014
DTITLE=Various Artist - Country Hits 10
DYEAR=1900
DGENRE=Country
TTITLE0=Nitty Gritty Dirt Band - Dance Little Jean
TTITLE1=Mel Tills - Good Woman Blues
TTITLE2=Patsy Cline - Turn The Cards Slowly
TTITLE3=Razzy Bailey - Memories
TTITLE4=Ralph Stanley - White Dove
TTITLE5=Porter Wagoner - I See Love
TTITLE6=Texas Radio - Hard Price To Pay
TTITLE7=Terri Gibbs  - Let Him Go
TTITLE8=Osmond Brothers - If Every Man Had A Woman Like You
TTITLE9=Willie Nelson - I Let My Mind Wonder
TTITLE10=Ronnie McDowell - The Wandering Eyes
TTITLE11=Merle Haggard - The Bottle Let Me Down
TTITLE12=George Jones - The World's Worst Loser
TTITLE13=Eddie Raven - I Should Have Called
TTITLE14=Stonewall Jackson - Waterloo
TTITLE15=Barbara Fairchild - Crazy Love
TTITLE16=Rex Allen Senior - Tiny Bubbles
TTITLE17=Bertie Higgins - Casablanca
TTITLE18=David Frizzell - Will It Be Love By Morning
TTITLE19=Willie Nelson - You Wouldn't Cross The Street
EXTD=
EXTT0=
EXTT1=
EXTT2=
EXTT3=
EXTT4=
EXTT5=
EXTT6=
EXTT7=
EXTT8=
EXTT9=
EXTT10=
EXTT11=
EXTT12=
EXTT13=
EXTT14=
EXTT15=
EXTT16=
EXTT17=
EXTT18=
EXTT19=
PLAYORDER=
